<svg width="82" height="84" viewBox="0 0 82 84" fill="none" xmlns="http://www.w3.org/2000/svg">
<path d="M41.6667 2L1 23.4493V61.1304L41.6667 82L81 61.1304V23.4493L41.6667 2Z" fill="#0052B4"/>
<path d="M34.1667 28.3768L41 31.5652M34.1667 28.3768L41.3333 24.7536L47.6667 27.942L41 31.5652M34.1667 28.3768V31.7826M41 31.5652V38.087M41 38.087L34.1667 35.1884V31.7826M41 38.087H41.3333L48.1667 34.7536V31.3478M48.1667 27.942V31.3478M48.1667 31.3478L57.3333 35.6232V41.7101L57.25 42.7246M34.1667 31.7826L25.1667 35.6232V42.7246M25.1667 42.7246L21.8333 44.4638M25.1667 42.7246L28.6667 40.9855L35.6667 44.4638M21.8333 44.4638L28.6667 47.942M21.8333 44.4638V51.4203L28.6667 54.8985M28.6667 47.942L35.6667 44.4638M28.6667 47.942V54.8985M35.6667 44.4638V51.4203L31.3333 53.5735M28.6667 54.8985L31.3333 53.5735M31.3333 53.5735L41 58.8116L51 53.5735M51 53.5735L53.8333 54.8985M51 53.5735L46.5 51.4203V44.4638M53.8333 54.8985V47.942M53.8333 54.8985L60.6667 51.4203V44.4638M53.8333 47.942L60.6667 44.4638M53.8333 47.942L46.5 44.4638M60.6667 44.4638L57.25 42.7246M46.5 44.4638L53.8333 40.9855L57.25 42.7246M1 23.4493L41.6667 2L81 23.4493V61.1304L41.6667 82L1 61.1304V23.4493Z" stroke="white" stroke-width="2"/>
</svg>
