<svg width="272" height="84" viewBox="0 0 272 84" fill="none" xmlns="http://www.w3.org/2000/svg">
<path d="M104.584 49V14.296H116.32C118.8 14.296 121.008 14.712 122.944 15.544C124.88 16.376 126.4 17.608 127.504 19.24C128.624 20.872 129.184 22.88 129.184 25.264C129.184 27.568 128.664 29.536 127.624 31.168C126.6 32.8 125.168 34.04 123.328 34.888C121.488 35.736 119.352 36.16 116.92 36.16H109.144V49H104.584ZM109.12 32.416H116.824C119.208 32.416 121.144 31.752 122.632 30.424C124.12 29.096 124.864 27.288 124.864 25C124.864 22.696 124.096 20.952 122.56 19.768C121.024 18.584 119.04 17.992 116.608 17.992H109.12V32.416ZM140.63 49.48C139.03 49.48 137.614 49.2 136.382 48.64C135.15 48.064 134.182 47.24 133.478 46.168C132.79 45.096 132.446 43.8 132.446 42.28C132.446 39.528 133.406 37.48 135.326 36.136C137.246 34.792 140.326 34.072 144.566 33.976L149.006 33.856V31.912C149.006 30.392 148.55 29.192 147.638 28.312C146.726 27.416 145.31 26.968 143.39 26.968C141.966 26.984 140.71 27.32 139.622 27.976C138.55 28.632 137.854 29.704 137.534 31.192H133.622C133.718 29.576 134.174 28.216 134.99 27.112C135.806 25.992 136.942 25.144 138.398 24.568C139.87 23.992 141.606 23.704 143.606 23.704C145.766 23.704 147.558 24.008 148.982 24.616C150.422 25.224 151.494 26.12 152.198 27.304C152.918 28.488 153.278 29.944 153.278 31.672V49H149.486L149.174 44.344C148.214 46.28 146.99 47.624 145.502 48.376C144.03 49.112 142.406 49.48 140.63 49.48ZM141.974 46.288C142.806 46.288 143.63 46.136 144.446 45.832C145.278 45.528 146.038 45.12 146.726 44.608C147.414 44.08 147.958 43.496 148.358 42.856C148.774 42.2 148.99 41.528 149.006 40.84V36.592L145.31 36.664C143.422 36.696 141.838 36.888 140.558 37.24C139.294 37.592 138.342 38.144 137.702 38.896C137.078 39.648 136.766 40.632 136.766 41.848C136.766 43.24 137.246 44.328 138.206 45.112C139.182 45.896 140.438 46.288 141.974 46.288ZM162.511 56.92C161.055 56.92 160.055 56.816 159.511 56.608C158.967 56.4 158.695 56.296 158.695 56.296V53.416L161.215 53.464C162.143 53.496 162.911 53.432 163.519 53.272C164.127 53.112 164.615 52.896 164.983 52.624C165.351 52.352 165.631 52.048 165.823 51.712C166.031 51.376 166.199 51.056 166.327 50.752L167.191 48.4L157.495 24.184H161.983L169.303 43.336L176.575 24.184H180.919L170.455 50.872C169.815 52.44 169.095 53.664 168.295 54.544C167.511 55.424 166.631 56.04 165.655 56.392C164.695 56.744 163.647 56.92 162.511 56.92ZM186.568 49V14.296H208.456L208.432 18.208H191.032V29.536H206.704V33.424H191.008V44.992L208.912 45.04V49H186.568ZM224.093 49.48C220.877 49.48 218.325 48.376 216.437 46.168C214.549 43.96 213.605 40.736 213.605 36.496C213.605 33.92 213.981 31.672 214.733 29.752C215.501 27.832 216.637 26.344 218.141 25.288C219.645 24.232 221.517 23.704 223.757 23.704C224.941 23.704 225.989 23.856 226.901 24.16C227.829 24.464 228.629 24.848 229.301 25.312C229.973 25.776 230.517 26.256 230.933 26.752C231.365 27.248 231.685 27.704 231.893 28.12V13.336H236.357V49H232.973L232.493 43.912C232.333 44.392 232.077 44.952 231.725 45.592C231.373 46.216 230.877 46.832 230.237 47.44C229.597 48.032 228.773 48.52 227.765 48.904C226.773 49.288 225.549 49.48 224.093 49.48ZM224.885 46.072C227.397 46.072 229.189 45.312 230.261 43.792C231.349 42.256 231.893 39.752 231.893 36.28C231.877 34.344 231.629 32.696 231.149 31.336C230.685 29.976 229.949 28.944 228.941 28.24C227.949 27.52 226.629 27.16 224.981 27.16C222.933 27.16 221.269 27.888 219.989 29.344C218.709 30.8 218.069 33.112 218.069 36.28C218.069 39.384 218.645 41.792 219.797 43.504C220.965 45.216 222.661 46.072 224.885 46.072Z" fill="#0052B4"/>
<path d="M41.6667 2L1 23.4493V61.1304L41.6667 82L81 61.1304V23.4493L41.6667 2Z" fill="#0052B4"/>
<path d="M34.1667 28.3768L41 31.5652M34.1667 28.3768L41.3333 24.7536L47.6667 27.942L41 31.5652M34.1667 28.3768V31.7826M41 31.5652V38.087M41 38.087L34.1667 35.1884V31.7826M41 38.087H41.3333L48.1667 34.7536V31.3478M48.1667 27.942V31.3478M48.1667 31.3478L57.3333 35.6232V41.7101L57.25 42.7246M34.1667 31.7826L25.1667 35.6232V42.7246M25.1667 42.7246L21.8333 44.4638M25.1667 42.7246L28.6667 40.9855L35.6667 44.4638M21.8333 44.4638L28.6667 47.942M21.8333 44.4638V51.4203L28.6667 54.8985M28.6667 47.942L35.6667 44.4638M28.6667 47.942V54.8985M35.6667 44.4638V51.4203L31.3333 53.5735M28.6667 54.8985L31.3333 53.5735M31.3333 53.5735L41 58.8116L51 53.5735M51 53.5735L53.8333 54.8985M51 53.5735L46.5 51.4203V44.4638M53.8333 54.8985V47.942M53.8333 54.8985L60.6667 51.4203V44.4638M53.8333 47.942L60.6667 44.4638M53.8333 47.942L46.5 44.4638M60.6667 44.4638L57.25 42.7246M46.5 44.4638L53.8333 40.9855L57.25 42.7246M1 23.4493L41.6667 2L81 23.4493V61.1304L41.6667 82L1 61.1304V23.4493Z" stroke="white" stroke-width="2"/>
</svg>
