<svg width="232" height="84" viewBox="0 0 232 84" fill="none" xmlns="http://www.w3.org/2000/svg">
<path d="M107.57 60H103.422V24.9375H114.719C116.438 24.9375 117.992 25.1172 119.383 25.4766C120.773 25.8359 122.008 26.3828 123.086 27.1172C124.164 27.8516 125 28.8359 125.594 30.0703C126.188 31.3047 126.484 32.7422 126.484 34.3828C126.484 35.7422 126.359 36.9609 126.109 38.0391C125.859 39.1016 125.43 40.1016 124.82 41.0391C124.211 41.9766 123.414 42.7578 122.43 43.3828C121.445 43.9922 120.18 44.4766 118.633 44.8359C117.102 45.1797 115.32 45.3516 113.289 45.3516C111.68 45.3516 109.773 45.25 107.57 45.0469V60ZM113.688 41.7656C115.219 41.7656 116.531 41.6172 117.625 41.3203C118.719 41.0234 119.555 40.6562 120.133 40.2188C120.727 39.7812 121.188 39.2109 121.516 38.5078C121.859 37.8047 122.07 37.1641 122.148 36.5859C122.227 35.9922 122.266 35.2812 122.266 34.4531C122.266 32.4688 121.594 31.0078 120.25 30.0703C118.922 29.1328 117.109 28.6641 114.812 28.6641H107.57V41.7188C110.586 41.75 112.625 41.7656 113.688 41.7656ZM137.781 57.375C139.641 57.375 141.273 56.8672 142.68 55.8516C144.102 54.8203 145.016 53.4375 145.422 51.7031V47.3672C145.344 47.3672 144.867 47.4062 143.992 47.4844C143.133 47.5625 142.57 47.6094 142.305 47.625C138.914 47.9219 136.547 48.4766 135.203 49.2891C133.875 50.1016 133.211 51.4062 133.211 53.2031C133.211 54.5781 133.617 55.6172 134.43 56.3203C135.242 57.0234 136.359 57.375 137.781 57.375ZM146.289 60C146.055 59 145.828 57.9219 145.609 56.7656C144.188 58.1875 142.852 59.1719 141.602 59.7188C140.352 60.2656 138.883 60.5391 137.195 60.5391C134.789 60.5391 132.852 59.9141 131.383 58.6641C129.93 57.3984 129.203 55.5859 129.203 53.2266C129.203 50.6016 130.195 48.6562 132.18 47.3906C134.18 46.125 137.055 45.3359 140.805 45.0234C141.32 44.9766 142.094 44.9141 143.125 44.8359C144.172 44.7422 144.953 44.6719 145.469 44.625V42.3516C145.469 40.5391 145.047 39.1953 144.203 38.3203C143.359 37.4453 142.031 37.0078 140.219 37.0078C137.688 37.0078 135.133 37.6328 132.555 38.8828C132.477 38.6953 132.273 38.1562 131.945 37.2656C131.617 36.3594 131.445 35.8906 131.43 35.8594C132.57 35.2188 133.922 34.7109 135.484 34.3359C137.062 33.9453 138.664 33.75 140.289 33.75C143.492 33.75 145.797 34.4531 147.203 35.8594C148.625 37.25 149.336 39.625 149.336 42.9844V60H146.289ZM152.805 34.2891H156.953L165.062 55.6875L172.281 34.2891H176.43C169.492 53.3828 165.906 63.2266 165.672 63.8203C164.594 66.5234 163.289 68.5 161.758 69.75C160.227 71.0156 158.211 71.6484 155.711 71.6484C154.961 71.6484 154.172 71.5859 153.344 71.4609L153.109 68.1328C153.984 68.1953 154.641 68.2266 155.078 68.2266C156.844 68.2266 158.18 67.8984 159.086 67.2422C160.008 66.6016 160.828 65.3906 161.547 63.6094C162.188 61.9688 162.664 60.7031 162.977 59.8125L152.805 34.2891ZM180.766 60V25.3359H200.641L200.477 28.9219H184.82V40.2656H199.703V43.8047H184.82V56.4141H200.992L200.805 60H180.766ZM216.883 57.1641C219.461 57.1641 221.375 56.3359 222.625 54.6797C223.891 53.0234 224.523 50.6562 224.523 47.5781C224.523 44.1094 223.914 41.5 222.695 39.75C221.492 37.9844 219.539 37.1016 216.836 37.1016C215.633 37.1016 214.57 37.3594 213.648 37.875C212.727 38.3906 211.984 39.1094 211.422 40.0312C210.859 40.9531 210.43 42.0156 210.133 43.2188C209.852 44.4062 209.711 45.7109 209.711 47.1328C209.711 49.1328 209.953 50.8672 210.438 52.3359C210.938 53.8047 211.734 54.9766 212.828 55.8516C213.922 56.7266 215.273 57.1641 216.883 57.1641ZM224.594 56.2734C223.75 57.5703 222.625 58.6016 221.219 59.3672C219.812 60.1328 218.242 60.5156 216.508 60.5156C213.117 60.5156 210.461 59.3125 208.539 56.9062C206.617 54.4844 205.656 51.1953 205.656 47.0391C205.656 43.0703 206.633 39.8672 208.586 37.4297C210.539 34.9766 213.156 33.75 216.438 33.75C218.141 33.75 219.742 34.125 221.242 34.875C222.758 35.6094 223.891 36.6016 224.641 37.8516L224.57 35.625V24.3047L228.438 24.0703V60H225.109L224.594 56.2734Z" fill="white"/>
<path d="M34.1667 28.3768L41 31.5652M34.1667 28.3768L41.3333 24.7536L47.6667 27.942L41 31.5652M34.1667 28.3768V31.7826M41 31.5652V38.087M41 38.087L34.1667 35.1884V31.7826M41 38.087H41.3333L48.1667 34.7536V31.3478M48.1667 27.942V31.3478M48.1667 31.3478L57.3333 35.6232V41.7101L57.25 42.7246M34.1667 31.7826L25.1667 35.6232V42.7246M25.1667 42.7246L21.8333 44.4638M25.1667 42.7246L28.6667 40.9855L35.6667 44.4638M21.8333 44.4638L28.6667 47.942M21.8333 44.4638V51.4203L28.6667 54.8985M28.6667 47.942L35.6667 44.4638M28.6667 47.942V54.8985M35.6667 44.4638V51.4203L31.3333 53.5735M28.6667 54.8985L31.3333 53.5735M31.3333 53.5735L41 58.8116L51 53.5735M51 53.5735L53.8333 54.8985M51 53.5735L46.5 51.4203V44.4638M53.8333 54.8985V47.942M53.8333 54.8985L60.6667 51.4203V44.4638M53.8333 47.942L60.6667 44.4638M53.8333 47.942L46.5 44.4638M60.6667 44.4638L57.25 42.7246M46.5 44.4638L53.8333 40.9855L57.25 42.7246M1 23.4493L41.6667 2L81 23.4493V61.1304L41.6667 82L1 61.1304V23.4493Z" stroke="white" stroke-width="2"/>
</svg>
